<svg id="Layer_1" data-name="Layer 1" xmlns="http://www.w3.org/2000/svg" xmlns:xlink="http://www.w3.org/1999/xlink" viewBox="0 0 182 182"><defs><style>.cls-1,.cls-12,.cls-15,.cls-8{fill:none;}.cls-13,.cls-2{fill:#fff;}.cls-2{opacity:0.8;}.cls-3{clip-path:url(#clip-path);}.cls-4{clip-path:url(#clip-path-2);}.cls-5{fill:#6d4829;}.cls-6{fill:#40c5af;}.cls-7{fill:#e0bb8d;}.cls-12,.cls-15,.cls-8{stroke:#fff;}.cls-12,.cls-8{stroke-linecap:round;stroke-linejoin:round;}.cls-8{stroke-width:0.3px;}.cls-9{fill:#c3986f;}.cls-10{fill:#e1bc8f;}.cls-11{fill:#c49970;}.cls-12{stroke-width:0.53px;}.cls-14{fill:#333;}.cls-15{stroke-miterlimit:10;stroke-width:0.84px;}.cls-16{fill:#f05125;}.cls-17{fill:#7fbb42;}.cls-18{fill:#fdb813;}.cls-19{fill:#32a0da;}</style><clipPath id="clip-path"><circle class="cls-1" cx="91" cy="91" r="91"/></clipPath><clipPath id="clip-path-2"><rect class="cls-1" x="23.22" y="10.07" width="223.31" height="211.67"/></clipPath></defs><title>Artboard 1</title><circle class="cls-2" cx="91" cy="91" r="91"/><g class="cls-3"><g class="cls-4"><polygon class="cls-5" points="115.87 114.22 65.54 114.22 65.54 84.03 115.87 84.03 115.87 114.22 115.87 114.22"/><path class="cls-6" d="M58.79,105.17h64c12.88,0,23.38,11.45,23.38,25V151H122.84v75.85h-64V151H35.41V130.22c0-13.6,10.5-25,23.38-25Z"/><path class="cls-7" d="M143.64,213.58h26.19v-20H146.15V151H127.86v46.87a15.9,15.9,0,0,0,15.78,15.74Z"/><polygon class="cls-7" points="35.31 259.38 35.31 150.97 53.6 150.97 53.6 259.38 35.31 259.38 35.31 259.38"/><polygon class="cls-8" points="35.31 259.38 35.31 150.97 53.6 150.97 53.6 259.38 35.31 259.38 35.31 259.38"/><polygon points="176.64 145.96 239.06 145.96 216.82 186.75 154.76 186.75 176.64 145.96 176.64 145.96"/><polygon class="cls-8" points="176.64 145.96 239.06 145.96 216.82 186.75 154.76 186.75 176.64 145.96 176.64 145.96"/><polygon class="cls-9" points="35.31 156.34 53.6 156.34 53.6 150.97 35.31 150.97 35.31 156.34 35.31 156.34"/><polygon class="cls-8" points="35.31 156.34 53.6 156.34 53.6 150.97 35.31 150.97 35.31 156.34 35.31 156.34"/><polygon class="cls-9" points="127.86 156.34 146.15 156.34 146.15 150.97 127.86 150.97 127.86 156.34 127.86 156.34"/><polygon class="cls-8" points="127.86 156.34 146.15 156.34 146.15 150.97 127.86 150.97 127.86 156.34 127.86 156.34"/><polygon class="cls-10" points="90.37 113.22 79.78 107.25 79.78 77.72 101.3 77.72 101.3 107.25 90.37 113.22 90.37 113.22"/><path class="cls-11" d="M121.44,64.45a3.27,3.27,0,0,1-3,3.32H63.17a3.27,3.27,0,0,1-3-3.32V57.82a3,3,0,0,1,3-3h55.3a3,3,0,0,1,3,3Z"/><polygon class="cls-12" points="90.65 113.22 80.05 107.25 80.05 77.72 101.58 77.72 101.58 107.25 90.65 113.22 90.65 113.22"/><path class="cls-11" d="M80.05,95a37.14,37.14,0,0,0,10.6,1.33A41.06,41.06,0,0,0,101.58,95V77.72H80.05Z"/><path class="cls-10" d="M65.82,44.54V84a42.9,42.9,0,0,0,24.83,8.29A45,45,0,0,0,116.15,84V44.54Z"/><path class="cls-5" d="M101.25,23A22.15,22.15,0,0,0,91,20.66a25.25,25.25,0,0,0-25.5,25.21V58.48C84.36,56.16,99.26,41.56,101.25,23Z"/><path class="cls-5" d="M80.38,23A22.58,22.58,0,0,1,91,20.66a25.18,25.18,0,0,1,25.16,25.21V58.48A41.16,41.16,0,0,1,80.38,23Z"/><path class="cls-13" d="M80.05,77.72A13.49,13.49,0,0,0,91,83a12.86,12.86,0,0,0,10.6-5.31Z"/><path class="cls-11" d="M87.34,71.42A4.74,4.74,0,0,0,91,73.08a4.07,4.07,0,0,0,3.31-1.66Z"/><path class="cls-14" d="M81,61.13a1.86,1.86,0,0,1-2,1.66,1.66,1.66,0,0,1,0-3.32,1.86,1.86,0,0,1,2,1.66Z"/><path class="cls-14" d="M104.56,61.13a1.86,1.86,0,0,1-2,1.66,1.66,1.66,0,0,1,0-3.32,1.86,1.86,0,0,1,2,1.66Z"/><rect class="cls-13" x="84.69" y="147.07" width="12.24" height="20.14"/><line class="cls-15" x1="85.24" y1="147.47" x2="81.1" y2="107.84"/><line class="cls-15" x1="96.39" y1="147.37" x2="100.49" y2="107.84"/><rect class="cls-16" x="86.95" y="153.27" width="3.63" height="3.63"/><rect class="cls-17" x="91.06" y="153.27" width="3.63" height="3.63"/><rect class="cls-18" x="91.06" y="157.38" width="3.63" height="3.63"/><rect class="cls-19" x="86.95" y="157.38" width="3.63" height="3.63"/></g></g></svg>